<?xml version="1.0" encoding="iso-8859-1"?>
<!-- Generator: Adobe Illustrator 19.0.0, SVG Export Plug-In . SVG Version: 6.00 Build 0)  -->
<svg version="1.1" id="Layer_1" xmlns="http://www.w3.org/2000/svg" xmlns:xlink="http://www.w3.org/1999/xlink" x="0px" y="0px"
	 viewBox="0 0 480 480" style="enable-background:new 0 0 480 480;" xml:space="preserve">
<g>
	<g>
		<path d="M470,368h-66.667V102c0-0.719-0.079-1.418-0.223-2.094l73.63-67.186c4.08-3.723,4.369-10.048,0.646-14.127
			c-3.722-4.079-10.046-4.37-14.127-0.646L382.103,92H96.666V25.334c0-5.523-4.477-10-10-10s-10,4.477-10,10V92H10
			c-5.523,0-10,4.477-10,10s4.477,10,10,10h66.666v266c0,5.523,4.477,10,10,10h296.667v66.667c0,5.523,4.477,10,10,10
			s10-4.477,10-10V388H470c5.523,0,10-4.477,10-10S475.523,368,470,368z M96.666,112h263.519L96.666,352.454V112z M383.333,368
			H109.3l274.033-250.048V368z"/>
	</g>
</g>
<g>
</g>
<g>
</g>
<g>
</g>
<g>
</g>
<g>
</g>
<g>
</g>
<g>
</g>
<g>
</g>
<g>
</g>
<g>
</g>
<g>
</g>
<g>
</g>
<g>
</g>
<g>
</g>
<g>
</g>
</svg>
